<svg width="1920" height="1080" viewBox="0 0 1920 1080" fill="none" xmlns="http://www.w3.org/2000/svg">
  <defs>
    <linearGradient id="skyGradient" x1="0" y1="0" x2="0" y2="1">
      <stop offset="0%" stop-color="#2C3E50"/>
      <stop offset="100%" stop-color="#3498DB"/>
    </linearGradient>
  </defs>
  <rect width="1920" height="1080" fill="url(#skyGradient)"/>
  <path d="M0 1080L480 540L720 720L960 360L1200 600L1440 240L1680 480L1920 120V1080H0Z" fill="#34495E"/>
  <path d="M0 1080L320 720L640 900L960 480L1280 780L1600 360L1920 600V1080H0Z" fill="#2C3E50"/>
  <path d="M0 1080L160 840L480 960L800 720L1120 900L1440 660L1760 840L1920 780V1080H0Z" fill="#1B2631"/>
</svg>